<svg width="96" height="302" viewBox="0 0 96 302" fill="none" xmlns="http://www.w3.org/2000/svg">
<path d="M42.1229 6.67997C41.2505 10.6272 39.7237 24.2908 39.0694 37.3471C37.3246 64.6742 33.3988 74.9977 20.0945 85.3213C15.5144 88.9649 11.1523 94.734 10.498 98.3776C8.53508 108.094 8.97129 124.49 10.9342 124.49C12.0247 124.49 20.3126 119.025 29.691 112.345C48.4478 98.6812 55.8633 97.163 59.353 106.272C61.9702 113.256 60.6616 122.972 53.9004 144.226C51.2832 152.424 46.2668 168.213 42.7772 179.144C36.016 201.006 18.5678 248.373 6.13596 279.951C1.77391 291.185 -0.843319 300.902 0.247193 301.813C5.69975 306.671 58.4805 215.884 78.3279 166.999C92.2864 132.992 97.0847 114.47 95.1217 102.021C92.7226 86.2322 76.8012 66.7996 66.1141 66.7996C57.1719 66.7996 54.5547 58.6014 56.2995 36.1325C58.2624 8.80542 56.5176 0 49.5383 0C45.8306 0 43.4315 2.12545 42.1229 6.67997Z" fill="black"/>
</svg>
