<svg width="178" height="241" viewBox="0 0 178 241" fill="none" xmlns="http://www.w3.org/2000/svg">
<path d="M76.8037 2.85943C75.3204 4.34041 74.0019 6.19164 74.0019 6.93213C73.8371 7.67261 73.5074 10.6346 73.1778 13.7817C72.5185 20.2609 70.3759 22.2973 55.5426 30.4427C35.4352 41.7351 22.9093 53.9532 11.8667 73.391C3.13148 88.7562 0 100.419 0 118.376C0 149.476 9.55926 169.284 29.5019 180.207C32.6333 181.873 37.0833 183.169 39.7204 183.169C49.9389 183.169 67.9037 167.433 75.65 151.513C92.6259 116.71 94.6037 110.786 95.263 93.3843C95.5926 84.1282 95.263 68.2076 94.4389 57.6557C93.6148 47.2888 93.45 37.6624 94.1093 36.5517C94.9334 35.2559 99.3834 34.8856 106.8 35.441C122.128 36.7368 135.643 44.1417 142.565 55.2491C147.344 63.0242 147.509 63.7647 148.004 89.1265C148.663 119.672 146.356 133.556 136.632 156.326C129.544 172.802 128.72 174.653 108.448 209.456C100.537 222.97 93.6148 235.743 92.9556 237.595C89.3296 248.332 111.25 225.006 131.028 197.053C161.519 154.104 178 117.635 178 93.3843C178 65.801 162.178 37.8476 140.093 26.37C132.182 22.2973 114.546 17.8543 99.713 16.1883C96.0871 15.818 94.1093 14.1519 92.4611 10.0792C88.3408 0.267725 81.7482 -2.87936 76.8037 2.85943ZM77.6278 43.4012C80.7593 59.3218 78.1222 94.6801 72.6834 109.675C69.7167 118.191 58.0148 136.333 52.9056 140.405C47.3019 144.848 35.4352 145.589 30.9852 141.701C20.6019 133 20.437 95.2355 30.4907 71.3547C35.7648 58.7664 46.313 49.3252 65.1019 40.2542C73.8371 35.9963 76.4741 36.7368 77.6278 43.4012Z" fill="black"/>
</svg>
