<svg width="96" height="219" viewBox="0 0 96 219" fill="none" xmlns="http://www.w3.org/2000/svg">
<path d="M62.1974 1.2505C61.7589 2.19356 62.0513 6.90883 62.7821 12.1899C63.3668 17.2824 63.9515 24.6382 63.9515 28.4104C64.0977 34.2574 63.513 35.389 58.5431 38.2182C55.4735 39.9157 51.9653 41.4246 50.7959 41.4246C47.8724 41.4246 30.3316 56.3248 22.8768 65.1895C14.6911 74.6201 7.67479 90.2748 3.28959 108.57C0.0737753 121.961 -0.364745 126.299 0.219949 144.406C1.09699 174.584 3.72811 185.523 12.937 198.349C17.0299 204.196 19.661 205.893 26.385 207.402C36.7633 209.854 43.3411 207.968 50.6497 199.858C59.274 190.427 70.237 180.619 70.9678 181.562C71.2602 182.128 70.8216 187.409 69.9446 193.633C69.0676 199.669 68.4829 207.591 68.7752 211.174L69.2137 217.776L77.838 218.341C82.5155 218.719 87.0469 218.153 87.7778 217.21C88.6548 216.078 89.8242 210.42 90.4089 204.384C92.1629 189.107 93.3323 182.694 95.0864 177.79C96.1096 174.961 96.2558 170.623 95.2326 164.21C94.3556 158.74 94.3556 153.648 95.0864 151.95C95.8173 150.253 96.1096 134.41 95.9635 116.492C95.3788 82.7303 94.7941 77.8264 85.8775 42.179C83.8311 33.8802 83.3926 29.3535 84.4158 26.1471C86.0237 20.4888 84.7081 3.32523 82.5155 1.43912C80.3229 -0.446991 62.9283 -0.446991 62.1974 1.2505ZM63.2206 64.4351C63.6592 66.887 64.2439 79.7126 64.5362 92.9153C65.1209 114.417 64.8285 118.944 61.3204 136.296C57.0814 157.986 53.427 166.662 44.0719 177.979C36.7633 186.655 30.3316 190.993 26.8235 189.295C23.6077 187.598 20.2457 178.545 20.2457 171C20.2457 167.605 19.661 164.022 18.9301 162.89C16.1528 158.929 14.2526 144.217 15.7143 138.936C16.5914 135.919 17.3222 129.506 17.3222 124.602C17.3222 108.193 30.1855 84.8051 49.188 66.887C57.3737 59.154 62.3436 58.3996 63.2206 64.4351Z" fill="black"/>
</svg>
