<svg width="232" height="330" viewBox="0 0 232 330" fill="none" xmlns="http://www.w3.org/2000/svg">
<g clip-path="url(#clip0_3_67)">
<path d="M194.891 17.9245H0.486002C0.356133 17.9217 0.232542 17.8679 0.141703 17.7749C0.0508645 17.6818 0 17.5568 0 17.4266C0 17.2964 0.0508645 17.1714 0.141703 17.0783C0.232542 16.9853 0.356133 16.9316 0.486002 16.9287H194.891C195.021 16.9316 195.145 16.9853 195.235 17.0783C195.326 17.1714 195.377 17.2964 195.377 17.4266C195.377 17.5568 195.326 17.6818 195.235 17.7749C195.145 17.8679 195.021 17.9217 194.891 17.9245Z" fill="#CACACA"/>
<path d="M11.424 10.9539C14.3763 10.9539 16.7696 8.50177 16.7696 5.47694C16.7696 2.45211 14.3763 0 11.424 0C8.47169 0 6.07837 2.45211 6.07837 5.47694C6.07837 8.50177 8.47169 10.9539 11.424 10.9539Z" fill="#3F3D56"/>
<path d="M29.8907 10.9539C32.843 10.9539 35.2363 8.50177 35.2363 5.47694C35.2363 2.45211 32.843 0 29.8907 0C26.9384 0 24.545 2.45211 24.545 5.47694C24.545 8.50177 26.9384 10.9539 29.8907 10.9539Z" fill="#3F3D56"/>
<path d="M48.3574 10.9539C51.3097 10.9539 53.703 8.50177 53.703 5.47694C53.703 2.45211 51.3097 0 48.3574 0C45.4051 0 43.0118 2.45211 43.0118 5.47694C43.0118 8.50177 45.4051 10.9539 48.3574 10.9539Z" fill="#3F3D56"/>
<path d="M183.827 3.35008H170.706C170.446 3.34433 170.199 3.23689 170.017 3.05076C169.835 2.86464 169.734 2.61463 169.734 2.35427C169.734 2.09391 169.835 1.84389 170.017 1.65777C170.199 1.47165 170.446 1.36421 170.706 1.35846H183.827C184.086 1.36421 184.334 1.47165 184.515 1.65777C184.697 1.84389 184.799 2.09391 184.799 2.35427C184.799 2.61463 184.697 2.86464 184.515 3.05076C184.334 3.23689 184.086 3.34433 183.827 3.35008Z" fill="#3F3D56"/>
<path d="M183.827 7.08433H170.706C170.446 7.07858 170.199 6.97114 170.017 6.78502C169.835 6.59889 169.734 6.34888 169.734 6.08852C169.734 5.82816 169.835 5.57815 170.017 5.39202C170.199 5.2059 170.446 5.09846 170.706 5.09271H183.827C184.086 5.09846 184.334 5.2059 184.515 5.39202C184.697 5.57815 184.799 5.82816 184.799 6.08852C184.799 6.34888 184.697 6.59889 184.515 6.78502C184.334 6.97114 184.086 7.07858 183.827 7.08433Z" fill="#3F3D56"/>
<path d="M183.827 10.8186H170.706C170.446 10.8129 170.199 10.7055 170.017 10.5193C169.835 10.3332 169.734 10.0832 169.734 9.82284C169.734 9.56248 169.835 9.31247 170.017 9.12634C170.199 8.94022 170.446 8.83277 170.706 8.82703H183.827C184.086 8.83277 184.334 8.94022 184.515 9.12634C184.697 9.31247 184.799 9.56248 184.799 9.82284C184.799 10.0832 184.697 10.3332 184.515 10.5193C184.334 10.7055 184.086 10.8129 183.827 10.8186Z" fill="#3F3D56"/>
<path d="M166.958 157.887H28.4184C24.1372 157.882 20.0328 156.175 17.0055 153.141C13.9783 150.107 12.2755 145.993 12.2708 141.703V66.0788C12.2756 61.7881 13.9784 57.6746 17.0056 54.6406C20.0329 51.6067 24.1373 49.9002 28.4184 49.8956H166.958C171.24 49.9002 175.344 51.6067 178.371 54.6406C181.399 57.6746 183.101 61.7881 183.106 66.0788V141.703C183.101 145.993 181.399 150.107 178.371 153.141C175.344 156.175 171.24 157.882 166.958 157.887Z" fill="#F2F2F2"/>
<path d="M97.6885 130.196C112.184 130.196 123.935 118.419 123.935 103.891C123.935 89.3635 112.184 77.5864 97.6885 77.5864C83.1931 77.5864 71.4423 89.3635 71.4423 103.891C71.4423 118.419 83.1931 130.196 97.6885 130.196Z" fill="#6C63FF"/>
<path d="M92.6407 116.197C92.2689 116.196 91.9035 116.101 91.5785 115.92C91.2308 115.732 90.9408 115.453 90.7397 115.112C90.5385 114.771 90.4339 114.382 90.437 113.986V95.7568C90.4369 95.3616 90.5429 94.9735 90.7437 94.6333C90.9444 94.2931 91.2327 94.0132 91.5784 93.8229C91.924 93.6325 92.3143 93.5387 92.7085 93.5513C93.1027 93.5638 93.4863 93.6823 93.8192 93.8942L111.073 103.009C111.386 103.208 111.644 103.483 111.822 103.809C112.001 104.134 112.094 104.5 112.094 104.871C112.094 105.243 112.001 105.608 111.822 105.934C111.644 106.26 111.386 106.535 111.073 106.734L93.8192 115.849C93.4676 116.075 93.0586 116.196 92.6407 116.197Z" fill="white"/>
<path d="M181.41 202.872C180.904 202.526 180.479 202.073 180.167 201.545C179.854 201.016 179.661 200.426 179.6 199.815C179.54 199.204 179.614 198.587 179.817 198.007C180.02 197.428 180.348 196.9 180.777 196.462L174.14 183.098L181.823 184.035L186.948 196.582C187.635 197.353 188.017 198.35 188.02 199.384C188.024 200.418 187.649 201.417 186.966 202.192C186.283 202.967 185.341 203.465 184.317 203.59C183.293 203.715 182.258 203.46 181.41 202.872Z" fill="#FFB8B8"/>
<path d="M154.505 156.889L159.54 156.192C159.54 156.192 160.026 163.8 162.434 164.953C164.843 166.106 164.031 166.295 164.315 167.516C164.588 168.375 165.039 169.167 165.638 169.84C166.237 170.513 166.971 171.052 167.791 171.422C169.699 172.263 178.376 193.41 178.376 193.41L185.683 191.702C185.007 189.866 184.562 187.953 184.358 186.007C184.101 183.064 180.773 176.121 179.678 175.09C178.582 174.059 179.015 172.242 178.447 169.801C177.879 167.36 178.273 169.624 177.327 165.555C176.38 161.487 165.738 137.106 165.292 133.35C164.846 129.593 159.624 127.382 159.624 127.382L155.564 128.331L154.505 156.889Z" fill="#3F3D56"/>
<path d="M134.759 169.478L126.618 207.782L171.056 204.424L157.755 167.026L134.759 169.478Z" fill="#FFB8B8"/>
<path d="M230.417 293.339C229.094 298.133 227.029 302.688 224.296 306.839C218.19 316.093 209.451 323.169 199.847 328.833C199.181 329.23 198.506 329.617 197.831 330H191.093L190.858 329.461V329.456L190.584 328.833L190.55 328.759L190.535 328.833L190.266 330H186.959C186.685 329.613 186.416 329.225 186.152 328.833C185.765 328.259 185.393 327.68 185.041 327.092C184.419 326.063 183.863 324.995 183.377 323.895C183.319 323.772 183.27 323.65 183.221 323.527L183.441 323.287L182.526 319.275L184.366 318.971L182.35 312.739C182.423 312.508 182.506 312.278 182.594 312.047C183.725 309.179 185.848 307.036 188.368 305.236C190.961 303.377 193.98 301.887 196.754 300.337C198.056 299.606 199.338 298.836 200.585 298.022V298.018C202.181 296.983 203.728 295.876 205.229 294.698C205.254 294.681 205.279 294.663 205.302 294.644C205.323 294.629 205.343 294.612 205.361 294.595C212.088 289.328 217.78 282.854 222.148 275.504L222.15 275.504L222.152 275.503L222.153 275.501L222.153 275.499C222.3 275.264 222.437 275.029 222.574 274.788V274.783C224.363 271.7 225.903 268.477 227.178 265.147V265.143C227.276 264.897 227.364 264.652 227.457 264.407C227.584 264.623 227.707 264.839 227.824 265.054L227.826 265.055L227.828 265.056L227.829 265.057L227.829 265.059C232.575 273.567 233.025 283.816 230.417 293.339Z" fill="#F0F0F0"/>
<path d="M227.829 265.059C227.876 269.6 227.405 274.131 226.425 278.564C225.984 280.593 225.435 282.597 224.781 284.566C223.51 288.42 221.849 292.134 219.824 295.649C219.712 295.84 219.604 296.027 219.487 296.213V296.218C218.621 297.68 217.682 299.098 216.673 300.464C215.146 302.642 213.26 304.542 211.095 306.084C209.327 307.255 207.328 308.029 205.234 308.355C204.842 308.428 204.441 308.482 204.035 308.531C202.415 308.722 200.742 308.796 199.137 309.139C198.324 309.3 197.533 309.555 196.779 309.899C194.195 311.101 192.742 313.616 192.106 316.304C191.994 316.774 191.906 317.25 191.837 317.726C191.304 321.379 191.891 325.175 191.588 328.833C191.553 329.22 191.509 329.613 191.455 330H191.093L190.858 329.461V329.456C190.883 329.25 190.902 329.044 190.922 328.833C191.039 327.035 191.054 325.233 190.966 323.434C190.947 322.625 190.932 321.811 190.942 320.997C190.951 320.344 190.976 319.692 191.025 319.045V319.04C191.059 318.638 191.098 318.241 191.152 317.843C191.307 316.627 191.606 315.434 192.043 314.288C192.468 313.108 193.138 312.031 194.008 311.128C194.879 310.226 195.929 309.518 197.092 309.051C197.802 308.784 198.534 308.579 199.279 308.438C200.918 308.124 202.611 308.046 204.26 307.84C204.436 307.82 204.612 307.796 204.784 307.766C205.004 307.732 205.219 307.693 205.434 307.653C207.592 307.27 209.629 306.385 211.384 305.069C213.469 303.415 215.282 301.442 216.756 299.224C217.559 298.071 218.322 296.895 219.032 295.683C219.032 295.683 219.032 295.682 219.032 295.681C219.032 295.681 219.033 295.68 219.033 295.68C219.033 295.679 219.034 295.679 219.035 295.679C219.035 295.678 219.036 295.678 219.037 295.678C219.071 295.62 219.105 295.566 219.139 295.507L219.144 295.497C222.187 290.285 224.409 284.633 225.73 278.741C225.774 278.525 225.823 278.309 225.872 278.093C226.78 273.839 227.218 269.498 227.178 265.147V265.143C227.178 264.937 227.173 264.736 227.169 264.53C227.159 264.108 227.809 264.015 227.819 264.436C227.824 264.642 227.829 264.848 227.824 265.054C227.825 265.054 227.825 265.054 227.826 265.055C227.827 265.055 227.827 265.055 227.828 265.056C227.828 265.056 227.828 265.057 227.829 265.057C227.829 265.058 227.829 265.059 227.829 265.059Z" fill="white"/>
<path d="M219.207 296.08C221.072 297.029 223.212 297.283 225.246 296.797C227.28 296.31 229.075 295.115 230.311 293.424C230.56 293.081 230.04 292.678 229.791 293.021C228.643 294.597 226.971 295.711 225.076 296.16C223.181 296.609 221.188 296.364 219.457 295.47C219.081 295.276 218.833 295.887 219.207 296.08Z" fill="white"/>
<path d="M205.497 307.849C204.135 303.788 204.35 299.362 206.099 295.452C206.272 295.065 205.664 294.816 205.49 295.202C203.678 299.274 203.463 303.88 204.89 308.103C205.027 308.506 205.633 308.249 205.497 307.849Z" fill="white"/>
<path d="M226.061 278.154C225.263 277.937 224.532 277.525 223.932 276.955C223.332 276.385 222.883 275.675 222.625 274.888C222.494 274.484 221.888 274.741 222.018 275.142C222.307 276.01 222.804 276.794 223.466 277.426C224.127 278.057 224.932 278.516 225.811 278.763C225.892 278.794 225.982 278.792 226.061 278.759C226.141 278.725 226.205 278.663 226.24 278.584C226.273 278.503 226.272 278.412 226.239 278.332C226.205 278.251 226.141 278.187 226.061 278.154Z" fill="white"/>
<path d="M200.585 298.018V298.022C200.434 301.524 199.997 305.008 199.279 308.438V308.443C199.24 308.678 199.186 308.909 199.137 309.139C197.956 314.445 196.301 319.633 194.19 324.64C193.608 326.052 192.998 327.45 192.361 328.833C192.184 329.225 192.003 329.613 191.817 330H191.093L190.858 329.461V329.456L190.584 328.833L190.55 328.759L190.536 328.833L190.266 330H183.27L181.909 328.833L179.928 327.131L182.697 324.101L183.152 323.601L183.221 323.527L183.441 323.287L182.526 319.275L184.366 318.971L182.35 312.739L181.396 309.792L181.156 309.051L179.761 304.741L175.554 305.53L174.869 303.127C176.13 300.197 177.18 297.18 178.01 294.099C178.015 294.075 178.024 294.055 178.029 294.031C180.252 285.733 180.919 277.093 179.996 268.551V268.546C179.967 268.271 179.933 267.992 179.893 267.722V267.712C179.474 264.172 178.767 260.672 177.78 257.247C177.711 256.988 177.633 256.733 177.56 256.478C177.785 256.576 178.005 256.669 178.23 256.767L178.235 256.772H178.245C178.602 256.929 178.959 257.095 179.306 257.272C187.654 261.337 193.794 268.968 197.283 277.765C197.292 277.789 197.302 277.809 197.312 277.834C199.132 282.445 200.217 287.316 200.527 292.265C200.644 294.18 200.664 296.1 200.585 298.018Z" fill="#F0F0F0"/>
<path d="M187.888 330H187.115C186.871 329.603 186.607 329.215 186.342 328.833C185.922 328.24 185.488 327.659 185.041 327.092C184.654 326.602 184.268 326.116 183.881 325.631C183.48 325.126 183.084 324.621 182.697 324.101L183.152 323.601C183.226 323.699 183.299 323.797 183.377 323.895C184.63 325.547 185.985 327.136 187.145 328.833C187.404 329.215 187.654 329.603 187.888 330Z" fill="white"/>
<path d="M177.397 256.752C177.524 256.913 177.657 257.08 177.779 257.247C178.733 258.488 179.635 259.767 180.485 261.087C181.998 263.414 183.342 265.848 184.507 268.369C184.6 268.565 184.692 268.766 184.781 268.967C187.272 274.476 188.897 280.338 189.595 286.346C189.605 286.405 189.61 286.459 189.615 286.518C189.776 287.92 189.881 289.327 189.928 290.74C190.084 293.399 189.821 296.067 189.15 298.645C189.052 298.983 188.944 299.316 188.827 299.64C188.533 300.433 188.164 301.197 187.726 301.92C187.411 302.448 187.062 302.955 186.679 303.436C186.449 303.73 186.209 304.019 185.955 304.299C185.808 304.461 185.656 304.622 185.505 304.784C185.378 304.907 185.255 305.034 185.128 305.157C183.807 306.442 182.349 307.633 181.155 309.05L181.395 309.791C182.545 308.33 184.027 307.118 185.363 305.843C186.201 305.053 186.965 304.186 187.643 303.254C187.731 303.127 187.824 302.999 187.907 302.867C188.36 302.203 188.752 301.499 189.076 300.763C189.243 300.395 189.395 300.018 189.532 299.625C190.331 297.09 190.695 294.437 190.608 291.779C190.592 290.077 190.491 288.376 190.305 286.684C190.285 286.464 190.261 286.248 190.231 286.027C189.735 281.999 188.83 278.033 187.53 274.189C185.885 269.313 183.623 264.669 180.798 260.371C179.99 259.14 179.134 257.938 178.229 256.766C178.112 256.605 177.989 256.448 177.862 256.286C177.603 255.952 177.138 256.418 177.397 256.752Z" fill="white"/>
<path d="M189.998 286.746C192.057 286.379 193.919 285.29 195.25 283.675C196.582 282.059 197.298 280.021 197.269 277.925C197.267 277.84 197.232 277.759 197.171 277.699C197.111 277.638 197.029 277.604 196.944 277.603C196.859 277.602 196.776 277.634 196.714 277.693C196.652 277.752 196.615 277.832 196.611 277.917C196.642 279.869 195.975 281.767 194.732 283.269C193.488 284.771 191.75 285.778 189.831 286.109C189.414 286.181 189.584 286.818 189.998 286.746Z" fill="white"/>
<path d="M186.121 304.416C182.594 301.996 180.107 298.332 179.155 294.155C179.061 293.741 178.425 293.909 178.519 294.322C179.517 298.667 182.114 302.475 185.79 304.985C186.14 305.224 186.47 304.654 186.121 304.416Z" fill="white"/>
<path d="M184.702 268.298C183.935 268.606 183.103 268.719 182.282 268.625C181.461 268.532 180.675 268.236 179.996 267.764C179.649 267.52 179.32 268.091 179.665 268.333C180.417 268.851 181.285 269.177 182.192 269.282C183.099 269.387 184.018 269.268 184.869 268.935C184.951 268.91 185.022 268.855 185.065 268.78C185.109 268.706 185.122 268.617 185.103 268.533C185.081 268.448 185.026 268.376 184.951 268.332C184.875 268.288 184.786 268.276 184.702 268.298Z" fill="white"/>
<path d="M140.952 319.917H135.961L133.586 300.62L140.953 300.62L140.952 319.917Z" fill="#FFB8B8"/>
<path d="M143.638 329.416H140.096L139.464 326.065L137.844 329.416H128.45C127.999 329.416 127.561 329.272 127.198 329.005C126.835 328.737 126.567 328.361 126.433 327.93C126.299 327.499 126.306 327.036 126.453 326.61C126.6 326.183 126.879 325.815 127.25 325.558L134.752 320.365V316.977L142.643 317.449L143.638 329.416Z" fill="#2F2E41"/>
<path d="M188.132 317.428L183.254 318.488L176.851 300.135L184.051 298.569L188.132 317.428Z" fill="#FFB8B8"/>
<path d="M192.766 326.141L189.304 326.894L187.977 323.752L187.104 327.372L177.923 329.368C177.483 329.464 177.024 329.416 176.613 329.232C176.202 329.047 175.86 328.736 175.638 328.344C175.416 327.951 175.325 327.498 175.378 327.049C175.431 326.601 175.626 326.182 175.934 325.853L182.167 319.184L181.45 315.872L189.262 314.657L192.766 326.141Z" fill="#2F2E41"/>
<path d="M223.288 329.416C223.289 329.493 223.274 329.569 223.245 329.64C223.215 329.711 223.173 329.775 223.118 329.83C223.064 329.884 223 329.927 222.929 329.956C222.859 329.985 222.783 330 222.706 330H85.5639C85.4095 330 85.2614 329.938 85.1522 329.829C85.043 329.72 84.9817 329.571 84.9817 329.416C84.9817 329.262 85.043 329.113 85.1522 329.004C85.2614 328.894 85.4095 328.833 85.5639 328.833H222.706C222.783 328.833 222.859 328.848 222.929 328.877C223 328.906 223.064 328.949 223.118 329.003C223.173 329.058 223.215 329.122 223.245 329.193C223.274 329.264 223.289 329.34 223.288 329.416Z" fill="#CCCCCC"/>
<path d="M125.483 233.718C128.987 253.014 127.905 240.75 127.905 240.75C127.905 240.75 125.278 243.82 127.029 245.575C128.781 247.331 127.029 250.837 127.029 250.837L133.291 301.88L134.269 306.294H141.119L141.609 300.409L144.737 271.874C144.737 271.874 146.488 268.363 145.613 267.485C144.737 266.607 146.488 261.346 146.488 261.346L148.676 219.683L156.861 245.188C156.861 245.188 155.545 246.943 156.861 248.257C158.173 249.572 166.177 276.258 166.177 276.258L175.859 299.429L176.348 299.919L178.795 306.294L185.155 303.352L181.379 270.682L181.223 269.981L181.057 269.241C181.057 269.241 181.932 267.049 180.621 265.73C180.237 265.328 179.957 264.838 179.805 264.303C179.652 263.768 179.632 263.204 179.745 262.66C179.788 262.614 179.827 262.565 179.863 262.513C180.018 262.3 180.124 262.055 180.176 261.797C180.293 261.248 180.191 260.478 179.305 259.59C179.056 259.325 178.846 259.024 178.684 258.698C177.353 256.172 176.682 250.822 176.682 250.822C176.682 250.822 175.498 208.449 171.623 201.976C171.418 201.637 162.374 178.438 162.159 178.305C157.785 175.677 132.312 179.286 132.312 179.286C132.312 179.286 124.554 201.569 124.461 202.147C123.957 205.398 122.513 217.349 125.483 233.718Z" fill="#2F2E41"/>
<path d="M105.552 108.999C105.219 109.515 105.003 110.097 104.92 110.706C104.836 111.314 104.887 111.934 105.068 112.52C105.249 113.107 105.557 113.647 105.968 114.101C106.38 114.556 106.886 114.915 107.451 115.152L106.513 130.051L113.23 126.197L113.091 112.64C113.427 111.662 113.392 110.595 112.995 109.641C112.597 108.687 111.865 107.912 110.935 107.463C110.006 107.014 108.944 106.923 107.952 107.206C106.96 107.489 106.106 108.127 105.552 108.999Z" fill="#FFB8B8"/>
<path d="M131.501 133.191C131.501 133.191 135.101 127.815 142.187 120.713C145.938 119.46 152.438 120.191 154.691 120.713C165.111 134.499 165.767 133.583 168.48 141.285C169.183 143.282 169.535 145.201 169.222 146.768C167.972 153.034 159.212 168.512 159.629 170.183C160.045 171.853 162.963 173.942 160.045 173.942C157.128 173.942 132.947 171.222 133.78 169.969C134.614 168.715 131.501 133.191 131.501 133.191Z" fill="#3F3D56"/>
<path d="M144.23 115.367C150.896 115.367 156.299 109.951 156.299 103.27C156.299 96.5897 150.896 91.174 144.23 91.174C137.564 91.174 132.161 96.5897 132.161 103.27C132.161 109.951 137.564 115.367 144.23 115.367Z" fill="#FFB8B8"/>
<path d="M146.324 129.094C146.324 129.094 136.321 120.197 123.681 138.218L114.018 142.876L113.719 131.719L115.427 129.486L114.698 117.498L105.27 119.086L104.57 126.871L102.955 130.248L104.01 133.113L102.898 145.484L103.444 149.863C103.444 149.863 104.107 155.457 108.009 157.786C109.049 158.41 110.179 158.866 111.36 159.138C113.672 159.668 116.466 159.546 119.781 158.219C126.67 155.512 133.392 152.394 139.909 148.882L146.324 129.094Z" fill="#3F3D56"/>
<path d="M171.25 129.199C173.804 128.291 176.358 127.383 178.912 126.472C178.472 125.732 177.911 125.07 177.253 124.516C174.821 122.48 171.465 122.113 168.378 121.426C165.285 120.74 161.929 119.332 160.799 116.37C159.624 113.291 161.327 109.966 162.315 106.828C163.7 102.448 163.671 97.5594 161.816 93.3618C159.962 89.1641 156.194 85.7609 151.722 84.7605C147.25 83.7651 142.196 85.3882 139.446 89.0563C137.674 88.5236 135.77 88.6595 134.091 89.4383C132.413 90.2171 131.077 91.5848 130.336 93.2833C129.695 94.8918 129.675 96.8288 130.629 98.2754C131.583 99.722 133.624 100.462 135.16 99.6582L134.269 97.3927C137.024 98.3293 138.815 103.321 138.443 106.215C138.076 109.103 136.393 111.633 134.685 113.992C132.978 116.351 131.158 118.734 130.424 121.554C129.367 125.609 130.795 130.042 133.438 133.293C136.08 136.544 139.803 138.751 143.659 140.374C146.545 141.59 149.544 142.517 152.613 143.14C152.065 142.071 151.522 141.002 150.974 139.933L157.476 143.876C158.734 143.998 160.001 144.072 161.268 144.096C164.957 144.16 168.72 143.773 172.096 142.297C175.477 140.816 178.447 138.133 179.67 134.647C180.063 133.519 180.248 132.33 180.218 131.136C177.229 130.488 174.239 129.843 171.25 129.199Z" fill="#2F2E41"/>
</g>
<defs>
<clipPath id="clip0_3_67">
<rect width="232" height="330" fill="white"/>
</clipPath>
</defs>
</svg>
