<svg width="214" height="278" viewBox="0 0 214 278" fill="none" xmlns="http://www.w3.org/2000/svg">
<g clip-path="url(#clip0_3_16)">
<path d="M151.347 76.7575C151.347 78.342 151.296 79.9131 151.193 81.4711C150.618 90.4563 148.348 99.2515 144.504 107.393C144.474 107.463 144.439 107.527 144.41 107.592C144.231 107.969 144.047 108.347 143.858 108.719C142.715 111.022 141.447 113.26 140.059 115.425C133.721 125.359 125.033 133.58 114.764 139.36C104.495 145.14 92.9605 148.301 81.1799 148.563L81.8902 189.411L91.152 184.533L92.8058 187.677L81.9597 193.389L83.2857 269.253L83.3005 270.266L76.1393 270.867L76.1541 270.843L78.4087 148.568C68.9265 148.432 59.5658 146.414 50.87 142.63C42.1742 138.846 34.3167 133.372 27.7536 126.525C27.3018 126.059 26.8547 125.577 26.4177 125.1C26.3979 125.08 26.3831 125.06 26.368 125.045C20.8998 119.081 16.4774 112.237 13.2872 104.8C13.3568 104.88 13.4312 104.954 13.5008 105.034C6.29077 88.1713 5.80177 69.1894 12.134 51.9779C18.4662 34.7664 31.1401 20.6286 47.5587 12.4615C47.807 12.3373 48.0604 12.2181 48.3087 12.094C64.5497 4.27006 83.137 2.83448 100.386 8.07176C117.636 13.309 132.288 24.8369 141.44 40.3703C141.877 41.1054 142.299 41.8554 142.706 42.6104C148.391 53.0932 151.361 64.8323 151.347 76.7575Z" fill="#E5E5E5"/>
<path d="M98.4719 271.035C110.284 271.035 119.86 261.457 119.86 249.644C119.86 237.83 110.284 228.253 98.4719 228.253C86.6596 228.253 77.0839 237.83 77.0839 249.644C77.0839 261.457 86.6596 271.035 98.4719 271.035Z" fill="#2F2E41"/>
<path d="M123.751 264.348H104.589V270.846H123.751V264.348Z" fill="#2F2E41"/>
<path d="M123.886 270.846C125.007 270.846 125.916 268.422 125.916 265.431C125.916 262.44 125.007 260.015 123.886 260.015C122.765 260.015 121.855 262.44 121.855 265.431C121.855 268.422 122.765 270.846 123.886 270.846Z" fill="#2F2E41"/>
<path d="M119.281 263.851H100.12V270.349H119.281V263.851Z" fill="#2F2E41"/>
<path d="M119.416 270.35C120.538 270.35 121.447 267.925 121.447 264.934C121.447 261.943 120.538 259.519 119.416 259.519C118.295 259.519 117.386 261.943 117.386 264.934C117.386 267.925 118.295 270.35 119.416 270.35Z" fill="#2F2E41"/>
<path d="M77.7249 229.751C75.9979 222.015 81.5184 214.199 90.0552 212.293C98.5921 210.386 106.913 215.111 108.64 222.847C110.367 230.582 104.709 233.435 96.172 235.341C87.6352 237.248 79.4519 237.486 77.7249 229.751Z" fill="#6C63FF"/>
<path d="M106.692 248.426C105.574 248.448 104.476 248.119 103.555 247.484C102.633 246.849 101.935 245.941 101.557 244.888C101.537 244.826 101.528 244.76 101.533 244.695C101.537 244.63 101.554 244.567 101.583 244.508C101.612 244.45 101.653 244.398 101.702 244.355C101.751 244.312 101.808 244.279 101.87 244.259C101.932 244.238 101.997 244.229 102.062 244.234C102.127 244.238 102.191 244.256 102.249 244.285C102.308 244.314 102.36 244.354 102.403 244.403C102.445 244.452 102.478 244.509 102.499 244.571C103.251 246.81 105.825 247.981 108.237 247.181C109.435 246.791 110.429 245.943 111.005 244.823C111.251 244.34 111.4 243.813 111.441 243.273C111.483 242.732 111.416 242.189 111.246 241.675C111.225 241.613 111.216 241.548 111.221 241.482C111.225 241.417 111.243 241.354 111.272 241.295C111.301 241.237 111.341 241.185 111.39 241.142C111.439 241.099 111.497 241.066 111.558 241.046C111.62 241.025 111.685 241.017 111.751 241.021C111.816 241.025 111.879 241.043 111.938 241.072C111.996 241.101 112.048 241.141 112.091 241.19C112.134 241.239 112.166 241.297 112.187 241.358C112.4 241.997 112.483 242.671 112.433 243.342C112.382 244.013 112.199 244.667 111.893 245.266C111.199 246.623 109.997 247.65 108.55 248.124C107.951 248.323 107.324 248.425 106.692 248.426Z" fill="white"/>
<path d="M116.22 251.333C116.794 252.456 116.898 253.76 116.51 254.96C116.123 256.16 115.274 257.157 114.152 257.731C113.029 258.305 111.725 258.41 110.525 258.022C109.325 257.634 108.329 256.785 107.755 255.663L107.75 255.654C106.557 253.315 108.206 251.863 110.545 250.67C112.883 249.477 115.026 248.994 116.22 251.333Z" fill="white"/>
<path d="M192.555 271.227H3.34354C3.21183 271.227 3.08551 271.175 2.99237 271.082C2.89924 270.989 2.84692 270.862 2.84692 270.731C2.84692 270.599 2.89924 270.473 2.99237 270.379C3.08551 270.286 3.21183 270.234 3.34354 270.234H192.555C192.687 270.234 192.813 270.286 192.906 270.379C193 270.473 193.052 270.599 193.052 270.731C193.052 270.862 193 270.989 192.906 271.082C192.813 271.175 192.687 271.227 192.555 271.227Z" fill="#3F3D56"/>
<path d="M93.6869 277.962C95.6789 277.448 95.9672 271.887 94.3307 265.54C92.6942 259.194 89.7527 254.466 87.7607 254.98C85.7687 255.494 85.4804 261.055 87.1169 267.401C88.7534 273.747 91.6949 278.476 93.6869 277.962Z" fill="#2F2E41"/>
<path d="M129.601 224.144H121.463C121.386 224.144 121.31 224.12 121.246 224.076C121.182 224.032 121.133 223.97 121.105 223.898C121.077 223.826 121.072 223.746 121.09 223.671C121.108 223.596 121.148 223.527 121.206 223.475L128.605 216.773H121.768C121.667 216.773 121.569 216.732 121.497 216.66C121.425 216.588 121.385 216.491 121.385 216.389C121.385 216.287 121.425 216.19 121.497 216.118C121.569 216.046 121.667 216.005 121.768 216.005H129.601C129.678 216.005 129.754 216.029 129.818 216.072C129.882 216.116 129.931 216.179 129.959 216.251C129.987 216.323 129.992 216.402 129.974 216.478C129.956 216.553 129.916 216.621 129.858 216.673L122.459 223.376H129.601C129.702 223.376 129.8 223.416 129.872 223.488C129.944 223.56 129.984 223.658 129.984 223.76C129.984 223.862 129.944 223.959 129.872 224.031C129.8 224.103 129.702 224.144 129.601 224.144Z" fill="#CBCBCB"/>
<path d="M139.962 212.246H131.825C131.747 212.246 131.671 212.222 131.607 212.178C131.544 212.134 131.494 212.072 131.467 212C131.439 211.928 131.433 211.848 131.451 211.773C131.469 211.698 131.509 211.629 131.567 211.577L138.967 204.875H132.13C132.028 204.875 131.93 204.834 131.858 204.762C131.786 204.69 131.746 204.593 131.746 204.491C131.746 204.389 131.786 204.291 131.858 204.219C131.93 204.147 132.028 204.107 132.13 204.107H139.962C140.04 204.107 140.115 204.131 140.179 204.174C140.243 204.218 140.292 204.28 140.32 204.353C140.348 204.425 140.353 204.504 140.335 204.58C140.317 204.655 140.277 204.723 140.22 204.775L132.82 211.478H139.962C140.064 211.478 140.161 211.518 140.233 211.59C140.305 211.662 140.346 211.76 140.346 211.862C140.346 211.964 140.305 212.061 140.233 212.133C140.161 212.205 140.064 212.246 139.962 212.246Z" fill="#CBCBCB"/>
<path d="M135.357 199.196H127.22C127.142 199.196 127.066 199.173 127.002 199.129C126.938 199.085 126.889 199.023 126.861 198.95C126.833 198.878 126.828 198.799 126.846 198.723C126.864 198.648 126.904 198.58 126.962 198.528L134.362 191.825H127.525C127.423 191.825 127.325 191.785 127.253 191.713C127.181 191.641 127.141 191.543 127.141 191.441C127.141 191.34 127.181 191.242 127.253 191.17C127.325 191.098 127.423 191.057 127.525 191.057H135.357C135.434 191.057 135.51 191.081 135.574 191.125C135.638 191.169 135.687 191.231 135.715 191.303C135.743 191.376 135.748 191.455 135.73 191.53C135.712 191.606 135.672 191.674 135.615 191.726L128.215 198.428H135.357C135.459 198.428 135.556 198.469 135.628 198.541C135.7 198.613 135.741 198.71 135.741 198.812C135.741 198.914 135.7 199.012 135.628 199.084C135.556 199.156 135.459 199.196 135.357 199.196Z" fill="#CBCBCB"/>
<path d="M191.754 88.1006L198.108 83.0178C193.172 82.4731 191.144 85.1656 190.314 87.2967C186.457 85.6952 182.259 87.7941 182.259 87.7941L194.973 92.4102C194.331 90.6968 193.215 89.2019 191.754 88.1006Z" fill="#3F3D56"/>
<path d="M9.49497 5.154L15.8491 0.0711822C10.9128 -0.473494 8.88464 2.21899 8.05457 4.35013C4.19816 2.74858 0 4.8475 0 4.8475L12.7135 9.46357C12.0721 7.75024 10.9556 6.25529 9.49497 5.154Z" fill="#3F3D56"/>
<path d="M207.646 22.538L214 17.4552C209.064 16.9105 207.036 19.603 206.205 21.7342C202.349 20.1326 198.151 22.2315 198.151 22.2315L210.864 26.8476C210.223 25.1343 209.107 23.6393 207.646 22.538Z" fill="#3F3D56"/>
</g>
<defs>
<clipPath id="clip0_3_16">
<rect width="214" height="278" fill="white"/>
</clipPath>
</defs>
</svg>
