<svg width="56" height="162" viewBox="0 0 56 162" fill="none" xmlns="http://www.w3.org/2000/svg">
<path d="M34.8686 4.35544C33.2795 6.8006 31.2931 15.6643 30.6972 23.6111C29.108 39.8103 27.5189 44.395 12.8196 74.6539C-3.86622 108.886 -4.26349 120.806 11.6277 108.275C17.1896 103.69 22.5529 101.245 24.5393 102.468C29.108 105.219 33.0808 117.75 34.67 135.783C36.6564 155.956 38.8414 161.763 44.602 161.763C50.9585 161.763 52.1503 158.095 54.534 128.142C56.719 101.551 56.5204 91.4645 53.5408 91.4645C52.7462 91.4645 48.7734 89.3249 44.8006 86.8798L37.4509 81.9894L41.2251 73.737C50.5612 53.87 56.5204 13.5248 51.5544 4.35544C48.3761 -1.45183 38.8414 -1.45183 34.8686 4.35544Z" fill="black"/>
</svg>
