<svg width="115" height="342" viewBox="0 0 115 342" fill="none" xmlns="http://www.w3.org/2000/svg">
<path d="M64.0619 3.02868C59.7229 9.78495 55.9498 27.4911 55.9498 42.1685C55.9498 54.0502 57.0818 60.1076 60.8548 69.4266C67.269 85.0359 67.269 97.3836 60.8548 110.197C56.1385 119.516 43.6875 138.62 34.0662 151.434C17.8422 172.868 -2.72089 212.24 0.297539 215.968C1.05215 216.9 6.3344 214.803 11.8053 211.308C22.7471 204.552 26.3315 203.853 31.9911 207.348C34.8208 209.445 35.5754 212.473 35.5754 223.19C35.5754 240.43 29.9159 255.108 15.5783 274.445C4.25923 289.821 -0.268416 302.169 4.63653 304.498C6.14575 305.197 9.54148 304.032 12.1826 301.703C16.8989 297.975 27.0861 296.111 29.1613 298.907C29.7272 299.606 31.0478 308.459 31.9911 318.477C33.8776 338.979 36.7074 343.638 45.7626 341.541C48.7811 340.61 51.7995 339.445 52.3655 338.979C52.9314 338.28 53.686 327.796 54.0633 315.914C55.0066 292.85 55.1952 294.015 44.4421 283.997L39.1598 279.104L43.4988 271.649C48.5924 263.495 55.0066 247.187 58.025 235.538C62.93 216.9 58.4023 199.427 46.8946 192.204C42.3669 189.176 41.6123 187.778 42.9329 184.516C45.7626 177.993 88.398 127.67 100.472 116.721C117.073 101.577 118.771 88.5305 105.943 74.0861C96.51 63.1362 84.4363 41.4696 75.381 19.1039C71.042 8.62006 67.269 0 66.8917 0C66.5143 0 65.1938 1.39785 64.0619 3.02868Z" fill="black"/>
</svg>
